<svg xmlns="http://www.w3.org/2000/svg" xmlns:xlink="http://www.w3.org/1999/xlink" id="Layer_1" x="0" y="0" enable-background="new 0 0 663.2 227.9" version="1.1" viewBox="0 0 663.2 227.9" xml:space="preserve"><style type="text/css">.st0{fill:#f5f000}.st1{fill:#fff}</style><g><g><g><path d="M3.3,146.3v-30.4l10.1,0.4V33.4L3.3,33.8V3.3h49.1v62.2L81.2,3.3h36.7v30.4l-12.9-0.4L86.7,65.5h25.1v50.8 l9.9-0.4v30.4H73.2V91.7H52.4v54.7H3.3z" class="st0"/><path d="M125,149.7H69.9V95H55.8v54.7H0v-37.3l10.1,0.4v-76L0,37.3V0h55.8v50.3L79,0h42.1v37.2l-14.3-0.5L92.5,62.2h22.7v50.6 l9.9-0.4V149.7z M76.6,143h41.7v-23.6l-9.9,0.4V68.9H81L103,29.9l11.4,0.4V6.7H83.3l-34.2,74v-74H6.7v23.6l10.1-0.4v89.9 l-10.1-0.4V143h42.4V88.3h27.5V143z"/></g><g><path d="M152.7,116.3c4.3,0,8,1.5,11,4.6c3.1,3.1,4.6,6.8,4.6,11c0,4.4-1.5,8.2-4.6,11.3c-3.1,3.1-6.8,4.6-11,4.6 c-4.4,0-8.2-1.5-11.3-4.6c-3.1-3.1-4.6-6.8-4.6-11.3c0-4.3,1.5-8,4.6-11C144.6,117.8,148.3,116.3,152.7,116.3z" class="st0"/><path d="M152.7,151.2c-5.3,0-9.9-1.9-13.6-5.6c-3.7-3.7-5.6-8.3-5.6-13.6c0-5.2,1.9-9.7,5.6-13.4c3.7-3.7,8.3-5.6,13.6-5.6 c5.2,0,9.7,1.9,13.4,5.6c3.7,3.7,5.6,8.2,5.6,13.4c0,5.3-1.9,9.9-5.6,13.6C162.4,149.3,157.9,151.2,152.7,151.2z M152.7,119.7 c-3.5,0-6.4,1.2-8.9,3.6c-2.4,2.4-3.6,5.3-3.6,8.7c0,3.5,1.2,6.4,3.6,8.9c2.4,2.4,5.3,3.6,8.9,3.6c3.4,0,6.2-1.2,8.7-3.6 c2.4-2.4,3.6-5.3,3.6-8.9c0-3.4-1.2-6.2-3.6-8.7C159,120.8,156.1,119.7,152.7,119.7z"/></g><g><path d="M234,146.3l-19.3-113l-10.1,0.4V3.3h58.3v30.4l-10.1-0.4l10.1,64.5l19.3-94.5h31.5l20.6,94.5l7.5-64.5 l-10.1,0.4V3.3h58.7v30.4l-10.1-0.4l-17.4,113h-47.2l-17.6-81.7l-16.7,81.7H234z" class="st0"/><path d="M365.9,149.7h-52.7l-14.8-68.7l-14.1,68.7h-53.1L211.9,36.8l-10.6,0.5V0h65v37.3l-9.5-0.4l6.6,42.1l16.1-79h36.9 l16.9,77.5l4.7-40.6l-9.6,0.4V0h65.4v37.3l-10.6-0.4L365.9,149.7z M318.5,143h41.6l17.4-113.1l9.6,0.4V6.7h-52v23.6l10.5-0.4 l-10.3,88.4L311,6.7h-26.1l-22.5,110.1l-13.6-86.9l10.7,0.5V6.7H208v23.6l9.5-0.4L236.8,143h42l19.4-94.6L318.5,143z"/></g><g><path d="M397.9,146.3v-26.1l9.2,0.4V77.7l-9.2,0.4V52h42.9v68.6l9.2-0.4v26.1H397.9z M421.7,8.1c4.3,0,8,1.5,11,4.6 c3.1,3.1,4.6,6.8,4.6,11.3c0,4.3-1.5,8-4.6,11c-3.1,3.1-6.8,4.6-11,4.6c-4.4,0-8.2-1.5-11.3-4.6c-3.1-3.1-4.6-6.8-4.6-11.3 c0-4.3,1.5-8,4.6-11C413.5,9.6,417.3,8.1,421.7,8.1z" class="st0"/><path d="M453.4,149.7h-58.8v-33l9.2,0.4V81.2l-9.2,0.4v-33h49.6v68.4l9.2-0.4V149.7z M401.3,143h45.4v-19.3l-9.2,0.4V55.4h-36.2 v19.3l9.2-0.4v49.9l-9.2-0.4V143z M421.7,42.9c-5.3,0-9.9-1.9-13.6-5.6c-3.7-3.7-5.6-8.3-5.6-13.6c0-5.2,1.9-9.7,5.6-13.4 c3.7-3.7,8.3-5.6,13.6-5.6c5.2,0,9.7,1.9,13.4,5.6c3.7,3.7,5.6,8.3,5.6,13.6c0,5.2-1.9,9.7-5.6,13.4 C431.4,41,426.9,42.9,421.7,42.9z M421.7,11.4c-3.5,0-6.4,1.2-8.9,3.6c-2.4,2.4-3.6,5.3-3.6,8.7c0,3.5,1.2,6.4,3.6,8.9 c2.4,2.4,5.3,3.6,8.9,3.6c3.4,0,6.2-1.2,8.7-3.6c2.4-2.4,3.6-5.3,3.6-8.7c0-3.5-1.2-6.4-3.6-8.9 C427.9,12.6,425.1,11.4,421.7,11.4z"/></g><g><path d="M457.3,146.3v-26.1l9.2,0.4V29.1l-9.2,0.4V3.3h42.9v117.2l9.2-0.4v26.1H457.3z" class="st0"/><path d="M512.7,149.7H454v-33l9.2,0.4V32.6L454,33V0h49.6v117.1l9.2-0.4V149.7z M460.7,143H506v-19.3l-9.2,0.4V6.7h-36.2V26 l9.2-0.4v98.5l-9.2-0.4V143z"/></g><g><path d="M517.5,146.3v-26.1l9.2,0.4V29.1l-9.2,0.4V3.3h42.9v117.2l9.2-0.4v26.1H517.5z" class="st0"/><path d="M573,149.7h-58.8v-33l9.2,0.4V32.6l-9.2,0.4V0h49.6v117.1l9.2-0.4V149.7z M520.9,143h45.4v-19.3l-9.2,0.4V6.7h-36.2V26 l9.2-0.4v98.5l-9.2-0.4V143z"/></g><g><path d="M575.8,146.3v-28.5h33.7v5.6h16.7v-9.6l-50.4-12.6V71.9c0-7.4,1.5-12.6,4.5-15.5c3-2.9,8.3-4.4,15.9-4.4 h61.9v28.7h-31.9v-5.8h-16.7v7.7l50.4,12.4v30.9c0,7.3-1.5,12.5-4.6,15.6c-3.1,3.1-8.2,4.7-15.3,4.7H575.8z" class="st0"/><path d="M639.9,149.7h-67.4v-35.2h40.3v5.6h10v-3.7l-50.4-12.6V71.9c0-8.4,1.8-14.3,5.5-17.9c3.7-3.6,9.6-5.3,18.2-5.3h65.3v35.4 h-32.3l34,8.4v33.5c0,8.3-1.8,14.2-5.6,18C653.9,147.7,648,149.7,639.9,149.7z M579.2,143h60.7c6.2,0,10.5-1.2,12.9-3.7 c2.4-2.5,3.7-7,3.7-13.3V97.7l-50.4-12.4V71.6h23.4v5.8h25.2v-22h-58.6c-6.5,0-11.2,1.2-13.5,3.4c-2.3,2.2-3.5,6.8-3.5,13.1v26.5 l50.4,12.6v15.6h-23.4v-5.6h-27V143z M612.8,80l10,2.5v-4.2h-10V80z"/></g></g></g><g><path d="M0.2,213.7v-11.3l4.5,0.2v-30.8l-4.5,0.2v-11.3h20.5l15.1,23.3L51,160.6h20.3v11.3l-4.5-0.2v30.8l4.5-0.2v11.3 H50.5v-28l-14.8,22.1L21,185.7v28H0.2z" class="st1"/><path d="M75.5,204.1v-15.9c0-3.6,0.8-6,2.5-7.4c1.7-1.4,4.6-2.1,8.9-2.1H101c4,0,6.9,0.7,8.7,2s2.7,3.9,2.7,7.5v15.9 c0,3.6-0.9,6.1-2.8,7.5c-1.9,1.4-4.7,2.1-8.6,2.1H87c-4.2,0-7.2-0.7-8.9-2.1C76.4,210.2,75.5,207.7,75.5,204.1z M90.6,204.1h6.8 v-15.9h-6.8V204.1z" class="st1"/><path d="M122.9,213.7l-5.2-25.5l-4.1,0.2v-9.7h16.8l3.2,21.1l5.6-21.1h13.4l5.6,21.1l3-21.1h16.8v9.7l-4.1-0.2 l-5.1,25.5H151l-5.1-16l-5.2,16H122.9z" class="st1"/><path d="M177,213.7V204l4.1,0.2v-15.9l-4.1,0.2v-9.7h19.2v25.5l4.1-0.2v9.7H177z M187.6,162.4c1.9,0,3.6,0.6,4.9,1.7 c1.4,1.1,2.1,2.5,2.1,4.2c0,1.6-0.7,3-2.1,4.1c-1.4,1.1-3,1.7-4.9,1.7c-2,0-3.7-0.6-5-1.7c-1.4-1.1-2.1-2.5-2.1-4.2 c0-1.6,0.7-3,2.1-4.1C183.9,163,185.6,162.4,187.6,162.4z" class="st1"/><path d="M205.7,213.7v-25.5l-4.1,0.2v-9.7h19.2v4.1l5.2-4.1h6.5c2.6,0,4.5,0.2,5.8,0.6c1.9,0.6,3.1,1.7,3.5,3.3 c0.2,0.8,0.3,2.2,0.3,4v17.6l4.2-0.2v9.7H227v-25.5h-6.2v25.5H205.7z" class="st1"/><path d="M251.1,216.5h13.7v3.7h6.3v-10.7l-5.2,4.2h-8.8c-2.9,0-4.9-0.7-6.1-2.1c-0.9-1.1-1.3-3.1-1.3-6.2V186 c0-2.8,0.7-4.7,2.2-5.7c1.4-1.1,4-1.6,7.8-1.6h5.8l5.7,4.2v-4.2h19.2v9.7l-4.1-0.2v31.2c0,3.3-0.7,5.5-2.1,6.7 c-1.4,1.2-4,1.8-7.9,1.8h-16.9c-3.3,0-5.5-0.5-6.6-1.4c-1.1-0.9-1.6-2.8-1.6-5.6V216.5z M264.7,204.1h6.4v-15.9h-6.4V204.1z" class="st1"/><path d="M335.8,213.7v-16.3h16.3v5.2h10v-10.5h-12.8c-5.2,0-8.8-0.9-11-2.7c-2.1-1.8-3.2-4.9-3.2-9.3v-6.8 c0-4.7,1.1-8,3.2-9.9c2.1-1.9,5.8-2.8,11.1-2.8h28v15.6h-15.3v-4.5h-10v9.7h12.7c5.1,0,8.8,0.8,11.1,2.5c2.3,1.7,3.5,4.4,3.5,8.1 v10.5c0,4.2-1.5,7.2-4.4,9c-2.3,1.4-5.8,2.1-10.4,2.1H335.8z" class="st1"/><path d="M407.6,201.4h15.1v4.1c0,3-0.7,5.1-2.2,6.3c-1.4,1.2-3.9,1.9-7.3,1.9H395c-3.7,0-6.3-0.6-7.8-1.8 c-1.5-1.2-2.2-3.3-2.2-6.4V187c0-3,0.8-5.1,2.3-6.4c1.6-1.3,4.1-1.9,7.7-1.9h18c3.6,0,6.1,0.6,7.5,1.9c1.4,1.2,2.1,3.4,2.1,6.5 v11.7H400v6.4h7.6V201.4z M400,192.1h7.6v-4.9H400V192.1z" class="st1"/><path d="M428.5,213.7V204l4.1,0.2v-15.9l-4.1,0.2v-9.7h19.2v3.8l4.5-3.8h5.6c3.1,0,5.1,0.4,6,1.3 c1.1,1,1.6,2.8,1.6,5.3v8.7h-11.5v-5.7h-6.2v15.9l4.1-0.2v9.7H428.5z" class="st1"/><path d="M479.6,213.7l-6.2-25.5l-4.1,0.2v-9.7h16.2l4.5,21.2l4.5-21.2h16.2v9.7l-4.1-0.2l-6.3,25.5H479.6z" class="st1"/><path d="M513.6,213.7V204l4.1,0.2v-15.9l-4.1,0.2v-9.7h19.2v25.5l4.1-0.2v9.7H513.6z M524.3,162.4 c1.9,0,3.6,0.6,4.9,1.7c1.4,1.1,2.1,2.5,2.1,4.2c0,1.6-0.7,3-2.1,4.1c-1.4,1.1-3,1.7-4.9,1.7c-2,0-3.7-0.6-5-1.7 c-1.4-1.1-2.1-2.5-2.1-4.2c0-1.6,0.7-3,2.1-4.1C520.6,163,522.3,162.4,524.3,162.4z" class="st1"/><path d="M563.5,200.7h13.4v5.2c0,3-0.7,5-2,6.1c-1.3,1.1-3.9,1.7-7.7,1.7h-15.1c-3.9,0-6.5-0.5-7.9-1.6 c-1.3-1.1-2-3.1-2-6.2v-19c0-3.1,0.7-5.3,2.2-6.4c1.4-1.2,4-1.8,7.7-1.8h15.4c4.9,0,7.9,1.2,8.9,3.7c0.3,0.8,0.5,2.3,0.5,4.5v5 h-13.4v-3.7h-6.2v15.9h6.2V200.7z" class="st1"/><path d="M604.3,201.4h15.1v4.1c0,3-0.7,5.1-2.2,6.3c-1.4,1.2-3.9,1.9-7.3,1.9h-18.2c-3.7,0-6.3-0.6-7.8-1.8 c-1.5-1.2-2.2-3.3-2.2-6.4V187c0-3,0.8-5.1,2.3-6.4c1.6-1.3,4.1-1.9,7.7-1.9h18c3.6,0,6.1,0.6,7.5,1.9c1.4,1.2,2.1,3.4,2.1,6.5 v11.7h-22.6v6.4h7.6V201.4z M596.8,192.1h7.6v-4.9h-7.6V192.1z" class="st1"/><path d="M625.6,213.7v-10.6h15.1v2.1h7.5v-3.6l-22.5-4.7v-10.8c0-2.8,0.7-4.7,2-5.8c1.3-1.1,3.7-1.6,7.1-1.6h27.7v10.7 h-14.3v-2.1h-7.5v2.9l22.5,4.6v11.5c0,2.7-0.7,4.6-2.1,5.8c-1.4,1.2-3.7,1.8-6.9,1.8H625.6z" class="st1"/></g></svg>